<?xml version="1.0" encoding="UTF-8" standalone="no"?>
<!DOCTYPE svg PUBLIC "-//W3C//DTD SVG 1.1//EN"
 "http://www.w3.org/Graphics/SVG/1.1/DTD/svg11.dtd">
<!-- Generated by graphviz version 2.26.3 (20100126.1600)
 -->
<!-- Title: callgraph Pages: 1 -->
<svg width="434pt" height="260pt"
 viewBox="0.00 0.00 434.00 260.00" xmlns="http://www.w3.org/2000/svg" xmlns:xlink="http://www.w3.org/1999/xlink">
<g id="graph1" class="graph" transform="scale(1 1) rotate(0) translate(4 256)">
<title>callgraph</title>
<polygon fill="white" stroke="white" points="-4,5 -4,-256 431,-256 431,5 -4,5"/>
<!-- do_can -->
<g id="node1" class="node"><title>do_can</title>
<ellipse fill="none" stroke="black" cx="197" cy="-234" rx="45.9619" ry="18.3848"/>
<text text-anchor="middle" x="197" y="-230.4" font-family="Times Roman,serif" font-size="14.00">do_can</text>
</g>
<!-- lib_print -->
<g id="node3" class="node"><title>lib_print</title>
<ellipse fill="none" stroke="black" cx="374" cy="-153" rx="51.1176" ry="18.3848"/>
<text text-anchor="middle" x="374" y="-149.4" font-family="Times Roman,serif" font-size="14.00">lib_print</text>
</g>
<!-- do_can&#45;&gt;lib_print -->
<g id="edge2" class="edge"><title>do_can&#45;&gt;lib_print</title>
<path fill="none" stroke="black" d="M236.338,-224.407C252.109,-219.963 270.242,-214.084 286,-207 305.588,-198.195 326.117,-185.803 342.415,-175.111"/>
<polygon fill="black" stroke="black" points="344.627,-177.842 351.001,-169.379 340.741,-172.02 344.627,-177.842"/>
</g>
<!-- do_need -->
<g id="node4" class="node"><title>do_need</title>
<ellipse fill="none" stroke="black" cx="197" cy="-180" rx="51.8276" ry="18.3848"/>
<text text-anchor="middle" x="197" y="-176.4" font-family="Times Roman,serif" font-size="14.00">do_need</text>
</g>
<!-- do_need&#45;&gt;lib_print -->
<g id="edge4" class="edge"><title>do_need&#45;&gt;lib_print</title>
<path fill="none" stroke="black" d="M245.366,-172.622C267.389,-169.263 293.619,-165.262 316.63,-161.751"/>
<polygon fill="black" stroke="black" points="317.253,-165.197 326.611,-160.229 316.197,-158.277 317.253,-165.197"/>
</g>
<!-- do_studied -->
<g id="node6" class="node"><title>do_studied</title>
<ellipse fill="none" stroke="black" cx="197" cy="-126" rx="63.8479" ry="18.3848"/>
<text text-anchor="middle" x="197" y="-122.4" font-family="Times Roman,serif" font-size="14.00">do_studied</text>
</g>
<!-- do_studied&#45;&gt;lib_print -->
<g id="edge6" class="edge"><title>do_studied&#45;&gt;lib_print</title>
<path fill="none" stroke="black" d="M253.978,-134.692C274.035,-137.751 296.577,-141.19 316.664,-144.254"/>
<polygon fill="black" stroke="black" points="316.197,-147.723 326.611,-145.771 317.253,-140.803 316.197,-147.723"/>
</g>
<!-- do_done -->
<g id="node8" class="node"><title>do_done</title>
<ellipse fill="none" stroke="black" cx="197" cy="-72" rx="51.8276" ry="18.3848"/>
<text text-anchor="middle" x="197" y="-68.4" font-family="Times Roman,serif" font-size="14.00">do_done</text>
</g>
<!-- do_done&#45;&gt;lib_print -->
<g id="edge8" class="edge"><title>do_done&#45;&gt;lib_print</title>
<path fill="none" stroke="black" d="M239.913,-82.6141C254.807,-86.923 271.42,-92.4459 286,-99 305.588,-107.805 326.117,-120.197 342.415,-130.889"/>
<polygon fill="black" stroke="black" points="340.741,-133.98 351.001,-136.621 344.627,-128.158 340.741,-133.98"/>
</g>
<!-- main -->
<g id="node10" class="node"><title>main</title>
<ellipse fill="none" stroke="black" cx="36" cy="-126" rx="34.8574" ry="18.3848"/>
<text text-anchor="middle" x="36" y="-122.4" font-family="Times Roman,serif" font-size="14.00">main</text>
</g>
<!-- main&#45;&gt;do_can -->
<g id="edge12" class="edge"><title>main&#45;&gt;do_can</title>
<path fill="none" stroke="black" stroke-dasharray="1,5" d="M47.1435,-143.42C59.7716,-161.802 82.011,-190.366 108,-207 119.271,-214.214 132.571,-219.587 145.407,-223.554"/>
<polygon fill="black" stroke="black" points="144.513,-226.939 155.09,-226.322 146.436,-220.208 144.513,-226.939"/>
</g>
<!-- main&#45;&gt;do_need -->
<g id="edge16" class="edge"><title>main&#45;&gt;do_need</title>
<path fill="none" stroke="black" stroke-dasharray="1,5" d="M64.2324,-137.066C77.4531,-142.125 93.4593,-148.074 108,-153 120.429,-157.211 133.937,-161.469 146.585,-165.321"/>
<polygon fill="black" stroke="black" points="145.923,-168.777 156.508,-168.314 147.945,-162.075 145.923,-168.777"/>
</g>
<!-- main&#45;&gt;do_studied -->
<g id="edge14" class="edge"><title>main&#45;&gt;do_studied</title>
<path fill="none" stroke="black" stroke-dasharray="1,5" d="M71.7311,-126C86.5999,-126 104.457,-126 121.967,-126"/>
<polygon fill="black" stroke="black" points="122.211,-129.5 132.211,-126 122.211,-122.5 122.211,-129.5"/>
</g>
<!-- main&#45;&gt;do_done -->
<g id="edge18" class="edge"><title>main&#45;&gt;do_done</title>
<path fill="none" stroke="black" stroke-dasharray="1,5" d="M64.2324,-114.934C77.4531,-109.875 93.4593,-103.926 108,-99 120.429,-94.7891 133.937,-90.5306 146.585,-86.6791"/>
<polygon fill="black" stroke="black" points="147.945,-89.9248 156.508,-83.6862 145.923,-83.2231 147.945,-89.9248"/>
</g>
<!-- analyze_person -->
<g id="node12" class="node"><title>analyze_person</title>
<ellipse fill="none" stroke="black" cx="197" cy="-18" rx="87.889" ry="18.3848"/>
<text text-anchor="middle" x="197" y="-14.4" font-family="Times Roman,serif" font-size="14.00">analyze_person</text>
</g>
<!-- main&#45;&gt;analyze_person -->
<g id="edge10" class="edge"><title>main&#45;&gt;analyze_person</title>
<path fill="none" stroke="black" d="M47.1435,-108.58C59.7716,-90.1983 82.011,-61.6343 108,-45 113.848,-41.2571 120.242,-38.0098 126.834,-35.1972"/>
<polygon fill="black" stroke="black" points="128.556,-38.2823 136.594,-31.3804 126.006,-31.7631 128.556,-38.2823"/>
</g>
</g>
</svg>
